<?xml version="1.0" encoding="UTF-8"?>
<!-- Created with Inkscape (http://www.inkscape.org/) -->
<svg width="210mm" height="297mm" version="1.1" viewBox="0 0 210 297" xmlns="http://www.w3.org/2000/svg">
 <g>
  <path d="m74.86 204.24c0.78136-18.254 1.2399-27.205 1.491-58.495 0.13032-16.239 0.18398-37.988 1.2593-57.788 9.76e-4 -0.01797 0.0014-0.036-2.3e-4 -0.05392-0.0016-0.01792-0.0051-0.03561-0.0079-0.05338s-0.0048-0.03576-0.0039-0.05373c9.33e-4 -0.01797 5e-3 -0.0356 0.0097-0.05298 0.44562-1.6584 0.77505-3.3171 1.045-4.7409 0.07033-0.37088 0.2293-1.2264 0.29963-1.5973 0.12885-0.68574 0.24716-1.3008 0.37991-1.8651 0.20271-0.86164 0.38687-1.3676 0.54102-1.6589 0.11992-0.22664 0.11979-0.17498 0.12516-0.21262 0.0097-0.06796 0.02357-0.13659 0.05719-0.19644 0.03361-0.05986 0.08387-0.10878 0.13834-0.15056 0.05447-0.04178 0.11269-0.07866 0.16531-0.12275 0.05262-0.04409 0.09787-0.0962 0.14037-0.1501-0.25192 0.31952-0.70386 0.80396-1.4044 1.2708-0.69465 0.46292-1.5173 0.82945-2.4153 1.0287-0.85628 0.19004-1.6153 0.1914-2.1995 0.11274-0.55859-0.07521-0.92167-0.21412-1.1072-0.32051-0.44301-0.25408 7.1e-4 -0.23636 0.44726-0.09993 0.56852 0.17369 1.2618 0.48469 2.316 0.94917l-0.36392-0.2316c1.8509 0.90367 4.0856 1.9125 6.5353 2.6888 2.4229 0.76776 5.1203 1.3309 8.0308 1.3761l-0.52224-0.09882c5.9931 0.93799 12.264 1.3923 18.507 0.95716 6.3875-0.44512 12.618-1.813 18.416-4.4237l-0.0745 0.02681c3.9918-1.8956 7.167-4.6817 9.4664-7.7575 2.5117-3.3599 3.9893-7.0607 4.5842-10.638l-0.0403 0.12478c0.3793-2.6169 0.53182-4.9321 0.78051-6.9652 0.35112-2.8704 0.82175-4.908 1.5281-6.6229-1.1951 1.5422-2.2871 3.1616-3.7982 5.8758-0.9021 1.6202-2.2352 4.1807-3.3601 6.0095-6e-3 0.0094-0.0112 0.01903-0.0149 0.02941-4e-3 0.01039-6e-3 0.02128-7e-3 0.03217-2e-3 0.01089-3e-3 0.02183-6e-3 0.03247-3e-3 0.01063-7e-3 0.02078-0.012 0.03074-1.2187 2.5706-3.0729 4.8694-5.4163 6.6264-2.1586 1.6184-4.651 2.7134-7.2516 3.1331-7e-3 0.0011-0.0131 0.0023-0.0194 0.0044-6e-3 0.0021-0.0123 0.0049-0.0182 0.0078-0.0119 0.0059-0.0241 0.01118-0.0369 0.01461-4.6939 1.257-9.6486 1.5497-14.739 1.1226-5.0004-0.41958-10.071-1.5295-15.028-3.0482-0.04297-0.01317-0.08668-0.02461-0.13142-0.02883-0.04474-0.0042-0.08979-0.0021-0.13473-0.0016-0.04494 5.32e-4 -0.09029-0.0015-0.13377-0.01293-0.04348-0.01138-0.08362-0.03266-0.12232-0.0555-0.88335-0.52127-1.781-1.2474-2.6897-2.0521-1.0002-0.88581-1.9795-1.8351-3.2068-3.0024-0.02628-0.025-0.05368-0.04911-0.08463-0.06802s-0.06459-0.03291-0.09816-0.04665-0.06712-0.02801-0.09779-0.04737c-0.03068-0.01935-0.05759-0.04403-0.08334-0.06957-0.41014-0.40661-1.3151-1.1736-2.3663-1.9068-1.0845-0.75635-2.6682-1.7244-4.6316-2.4051-1.0421-0.36126-2.2737-0.67093-3.6592-0.79777-1.4403-0.13186-3.0295-0.0637-4.6874 0.33572-1.7249 0.41553-3.3379 1.1454-4.7846 2.1395-1.2783 0.87838-2.3471 1.9109-3.2199 2.9747-2.1421 2.4737-3.4477 5.1172-4.2253 7.5424-0.87282 2.722-1.1097 5.2524-1.1204 7.2102-0.0074 1.3565 0.09302 2.5823 0.23531 3.6179 0.10637 0.7742 0.24474 1.5053 0.40098 2.185 0.39454 1.7165 0.92324 3.1949 1.4288 4.3404l-0.0023-0.21398c1.0458 21.164 4.0809 42 6.6576 58.535 4.401 28.24 6.9403 42.238 8.34 57.773z"/>
  <path d="m1027.9 466.22-605.94 29.796"/>
  <path d="m66.348 129.86c1.8896 0.95497 4.8384 3.3361 9.1125 5.5812 2.8392 1.4914 6.5825 2.9988 11.035 3.196l-0.05383 5e-3c1.0702 0.10923 2.1696 0.10488 3.2735-0.0289 1.7376-0.21053 3.7207-0.77106 5.7527-1.7986 2.5268-1.2777 5.1052-3.2714 7.1955-6.0631l-0.0162 0.0187c1.3195-1.8413 2.2289-3.7379 2.9572-5.4466 0.69247-1.6248 1.2273-3.0837 1.8045-4.3594 3e-3 -6e-3 6e-3 -0.0115 0.01-0.0163 4e-3 -5e-3 9e-3 -9e-3 0.0146-0.0122 5e-3 -4e-3 0.0104-7e-3 0.0145-0.0123 4e-3 -5e-3 7e-3 -0.0106 0.01-0.0164 0.54598-1.2709 1.1772-2.508 1.9085-3.6503 0.77178-1.2054 1.6447-2.2893 2.6408-3.2082l-0.18671 0.0748c0.62016-0.47138 1.3122-0.83637 2.0796-1.1293 0.83523-0.31877 1.7232-0.53757 2.597-0.70656 2.3322-0.45106 4.4268-0.65797 5.7406-0.87906-1.3138-0.22078-3.1698-0.88785-5.6217-1.5711-0.89686-0.24991-1.9474-0.50389-3.0678-0.63621-1.0318-0.12185-2.2012-0.1511-3.4632 0.051-0.0167 3e-3 -0.0334 6e-3 -0.0491 0.0124-0.0157 6e-3 -0.0302 0.0153-0.0445 0.0243s-0.0287 0.0181-0.0443 0.0247c-0.0156 7e-3 -0.0322 0.0103-0.0489 0.0134-1.8163 0.3338-3.6501 0.95421-5.4738 1.8568-1.7229 0.8527-3.358 1.9184-4.8784 3.1226l0.04852-0.0573c-1.6952 1.383-3.197 2.9581-4.3792 4.1758-1.3711 1.4122-2.2707 2.2992-3.2462 3.067-0.0016 1e-3 -0.0032 3e-3 -0.0046 4e-3 -0.0014 2e-3 -0.0025 3e-3 -0.0036 5e-3s-0.0022 4e-3 -0.0035 5e-3c-0.0013 2e-3 -0.0029 3e-3 -0.0045 4e-3 -1.0399 0.84034-2.1563 1.4563-3.1761 1.9568-0.82456 0.40461-1.5974 0.74007-2.2774 1.0823-0.43202 0.21743-0.86619 0.4572-1.316 0.70939-4e-3 2e-3 -0.0083 4e-3 -0.01286 5e-3 -0.0046 6.4e-4 -0.0092 1e-5 -0.01377-8.5e-4 -0.0045-8.6e-4 -0.0091-2e-3 -0.01373-2e-3 -0.0046 9e-5 -0.0091 1e-3 -0.01349 3e-3 -2.8102 0.98733-5.4032 1.6807-8.5331 2.4074-3.3698 0.78235-9.1399 2.0322-10.248 2.1881z"/>
  <path d="m1391.5 284.16c-246.79-45.265-493.58-90.529-740.37-135.79"/>
  <g>
   <path d="m24.177 29.656c3.1528-0.13501 11.803 0.23341 19 1.3506 0.01092 0.0017 0.02195 0.0031 0.033 0.0026 0.01105-4.3e-4 0.02197-0.0025 0.03272-0.0051s0.02143-0.0055 0.0323-0.0075 0.02192-0.0029 0.03296-0.0035c11.321-0.59682 22.978-1.7859 34.242-2.6116 5.5465-0.40656 10.889-0.71828 16.192-0.86606 5.2155-0.14534 10.913-0.14752 16.82 0.24789 0.0159 0.0011 0.0318 0.0025 0.0477 0.0033 6.4318 0.31746 13.746 1.1138 21.112 3.6944 0.0229 8e-3 0.0449 0.01844 0.066 0.0304s0.043 0.02248 0.0659 0.03065c4.7651 1.7016 9.9446 3.9871 15.358 5.7244 2.7736 0.89013 5.5823 1.6247 8.4514 2.0774 2.9798 0.47016 5.9402 0.62241 8.9146 0.37077 3.8131-1.3083 6.5079-3.1646 7.9253-3.9826-1.726-0.02717-4.7355-0.59084-7.9265-1.9319-2.4342-0.24317-4.7976-0.81668-7.1564-1.6493-2.2801-0.80482-4.5359-1.8442-6.8386-3.049-4.4975-2.3532-9.0911-5.3279-14.065-7.9831l0.13192 0.06104c-8.3079-4.9204-17.241-7.2876-25.083-7.9097l0.0477 0.0033c-6.6074-0.51062-12.864-0.46468-18.48-0.15184-5.6863 0.31674-11.366 0.94398-17.053 1.7587-11.353 1.6264-23.298 4.1106-33.935 6.0277l0.13098-0.01338c-7.7326 2.3515-15.739 7.5741-18.097 8.7814z"/>
   <path d="m80.805 229.41c1.2107-2.6894 4.5922-7.9282 8.826-12.877 2.5336-2.9618 5.4779-5.9427 8.9118-8.5967 0.25776-0.19921 0.52395-0.401 0.79872-0.60419 0.05189-0.0384 0.09969-0.0821 0.14226-0.13061 0.04257-0.0485 0.08616-0.0962 0.13389-0.13964 4.4731-4.0733 10.834-8.9281 18.328-15.665 2.981-2.6799 6.2462-5.8281 9.2849-9.4168 2.8093-3.3178 5.5677-7.175 7.8489-11.679 2e-3 -5e-3 5e-3 -0.01 7e-3 -0.0144 1.5982-3.1817 2.6151-6.4392 3.2963-9.6894 0.64248-3.0654 0.9806-6.0965 1.2417-8.9828 0.25675-2.8381 0.42823-5.3778 0.73086-7.9297 0.28697-2.4199 0.67194-4.6436 1.2896-6.7149 0.0279-0.0936 0.0613-0.18555 0.0939-0.27768 0.0326-0.0921 0.0564-0.18718 0.0731-0.28347 0.37805-2.177 1.1395-4.292 2.2444-7.3324 0.98395-2.7074 2.2268-6.1244 2.7788-9.8434l-9e-3 0.0409c0.48933-3.319 0.81077-6.4444 1.3455-9.2651 0.53543-2.8245 1.2604-5.3195 2.4942-7.5586 0.0249-0.0453 0.0535-0.0884 0.0843-0.12989 0.0307-0.0415 0.0591-0.0848 0.0837-0.13026 2.8201-5.2071 6.5848-10.445 9.8794-16.042 1.6888-2.869 3.2463-5.827 4.4946-8.9459 1.279-3.1956 2.2142-6.5134 2.6486-10.024l-8e-3 0.04418c0.37283-3.6901 0.57267-7.125 0.9455-10.815 0.38476-3.766 0.90726-7.1374 1.8144-10.371 3e-3 -0.01152 7e-3 -0.02296 0.0118-0.03386 5e-3 -0.0109 0.011-0.02126 0.0164-0.03192 5e-3 -0.01065 0.0101-0.02178 0.0126-0.0335 2e-3 -0.01172 2e-3 -0.02379 2e-3 -0.03574-0.12542-2.5755-0.45247-4.031-0.72185-5.3465-0.24367 1.2077-0.91499 2.7363-2.1625 4.5865l0.0425-0.13501c-1.4933 3.2871-2.5985 6.7411-3.6067 10.559-0.9057 3.4299-1.6887 7.0071-2.6126 10.542-2e-3 0.0072-3e-3 0.0146-4e-3 0.02203-8.5e-4 0.0074-2e-3 0.01484-3e-3 0.02215-0.60326 2.8309-1.6155 5.5029-2.9374 8.1087-1.2967 2.5563-2.8813 5.0308-4.6659 7.54-3.4755 4.8867-7.6879 9.7863-11.391 15.437l0.16791-0.26014c-2.4967 3.1487-4.1038 6.6246-5.3135 10.026-1.1532 3.2419-2.0737 6.8452-2.8915 9.6117-2e-3 7e-3 -3e-3 0.0136-4e-3 0.0205-9.3e-4 7e-3 -2e-3 0.0138-5e-3 0.0204-0.68971 2.1508-1.7826 4.2357-3.1519 6.8448-1.3433 2.5596-2.985 5.6829-4.0494 9.215l0.16696-0.56115c-1.1769 3.1977-1.8817 6.3726-2.3813 9.2809-0.49748 2.8958-0.86092 5.9989-1.185 8.4434-0.36369 2.7429-0.72254 5.0553-1.2472 7.2257-0.5397 2.2325-1.2164 4.129-2.0937 5.8125l7e-3 -0.0144c-1.6244 3.1336-3.6292 5.9576-5.8289 8.5802-2.3942 2.8545-5.0713 5.5287-7.7471 8.0539-7.6604 7.2292-12.375 10.929-17.944 17.32l0.27614-0.27025c-0.35581 0.38221-0.69209 0.76147-1.0095 1.1359-4.2288 4.9882-6.2447 10.427-7.1853 14.876-1.5633 7.3938-0.50721 14.151-0.36492 16.813z"/>
   <path d="m77.009 227.36c0.58952-1.9753 1.3266-4.6961 1.4445-8.3139 0.0848-2.603-0.15682-5.458-0.83946-8.6543-1.1505-5.3872-3.2624-10.499-5.6989-15.875l0.12016 0.20247c-2.2639-4.5674-4.9636-8.8737-7.9462-13.039-3.3223-4.6392-6.7803-8.836-11.013-13.984-3.081-3.7468-6.4472-7.8543-9.4503-12.032-2.7541-3.8308-5.3587-7.9261-7.4755-12.373-0.03685-0.0774-0.0703-0.1565-0.1118-0.23151-1.3128-2.3725-2.2415-5.145-2.8139-8.6164-0.54058-3.2782-0.70373-6.7553-0.7808-10.755-6.03e-4 -0.0313 0.0011-0.0625 0.0041-0.0936s0.0043-0.0624 0.0033-0.0936c-0.15824-4.8574-0.92382-9.5381-1.7424-13.955-0.83809-4.5222-1.6902-8.5797-2.2141-12.775-0.0039-0.03087-0.0055-0.06197-0.0056-0.09308-1.6e-4 -0.03111-0.0019-0.06221-0.0058-0.09307-1.0365-8.132-1.8543-16.304-2.9303-24.206-1.174-8.6221-2.5959-16.555-4.7255-24.229-0.0039-0.01406-0.0069-0.02834-0.0096-0.04267-0.0028-0.01432-0.0067-0.02841-0.0116-0.04213-1.718-4.7791-4.0896-9.225-6.0242-12.729-3.1953-5.788-4.7407-8.3461-6.5313-12.183 1.0797 3.1826 2.7984 7.6359 4.729 12.999 1.3703 3.8068 2.8881 8.3406 3.7444 13.026l-0.02125-0.08479c1.3558 7.564 2.012 15.352 2.3849 23.869 0.34237 7.819 0.42313 15.982 0.75526 24.34l-0.01142-0.18611c-0.16469 4.6281 0.07744 9.2343 0.24164 13.618 0.1677 4.4774 0.24298 8.5108-0.13409 12.465l0.0073-0.18726c-0.50699 4.0811-0.89077 8.4162-0.66461 12.813 0.24653 4.7928 1.2129 9.5186 3.3515 13.994l-0.1118-0.23151c2.5293 5.6102 5.6221 10.577 8.7188 14.931 3.3719 4.7405 7.0554 9.1684 10.242 12.898 4.2229 4.9426 8.0153 9.2312 11.158 13.041 2.9782 3.6103 5.675 7.099 8.0672 10.71 0.02172 0.0328 0.04002 0.0677 0.05719 0.10307 0.01717 0.0354 0.03829 0.0688 0.06297 0.0994 3.6259 4.5016 7.2461 8.3707 9.9685 11.995 1.6882 2.2476 3.0164 4.3294 4.0277 6.4012 1.4179 2.9048 2.0517 5.4918 2.1858 7.5928z"/>
  </g>
  <path d="m1208.6 346.25c-303.98-83.899-607.96-167.8-911.93-251.7"/>
  <path d="m404.16 79.631c5.8359-9.8504 11.672-19.701 17.508-29.551"/>
  <path d="m80.114 19.978c-5.1105-0.055122-8.4237-0.89551-17.296-2.0959-5.1286-0.69382-11.696-1.3481-18.486-0.13268-0.0065 0.0012-0.01302 0.0026-0.01919 5e-3 -0.0062 0.0024-0.01199 0.0056-0.01787 0.0086-0.0059 3e-3 -0.01194 0.0058-0.01837 0.0074-0.0064 0.0016-0.0131 0.0018-0.01973 0.0018-2.3362-0.01888-4.8481 0.28531-7.2871 1.152-0.44496 0.15813-0.88562 0.3344-1.3198 0.5298-1.7048 0.76714-3.6194 1.9695-5.4506 3.6794-0.16302 0.15222-0.33225 0.29773-0.49413 0.45117-0.16188 0.15344-0.30487 0.32558-0.43593 0.50606-0.67986 0.93622-0.98734 1.7788-1.078 2.2333-0.0918 0.46029 0.01438 0.49928 0.35421 0.22397 0.15441-0.12509 0.45625-0.3931 0.80276-0.63741 0.37236-0.26253 0.82186-0.52047 1.3463-0.70119 0.51802-0.17852 1.0103-0.24658 1.4328-0.2282 0.41048 0.01787 0.70658 0.11481 0.87611 0.22276l-1.7641 0.18564c-2.869 1.631-5.7095 3.0089-8.7123 3.7972-0.0057 0.0015-0.01158 0.0028-0.01751 0.0027-0.0059-2.5e-5 -0.01178-0.0012-0.01755-0.0026-0.0058-0.0014-0.01153-0.0029-0.01744-0.0034-0.0059-5.45e-4 -0.01184-2.9e-5 -0.01772 7.33e-4 -3.4524 0.44768-7.0791 0.54092-10.241 0.92112-1.9428 0.2336-3.621 0.54306-5.1787 0.967-2.0381 0.55466-3.5978 1.2347-4.8573 1.8927 1.3676-0.39268 3.0191-0.64705 5.025-0.62941 1.5263 0.01343 3.1368 0.1806 4.9565 0.48801 2.9797 0.50334 6.3319 1.4197 10.162 2.038l-0.07021-0.0025c3.6992 1.1239 7.7222 1.4891 11.894 1.2152l-1.7641 0.18564c0.56234 0.12992 1.2044 0.20628 1.9115 0.16739 0.72406-0.03982 1.4719-0.19846 2.2143-0.49952 0.75025-0.30424 1.3918-0.71175 1.932-1.1474 0.53312-0.42992 0.94843-0.87212 1.2507-1.2174 0.66082-0.75463 0.8799-1.1074 1.0693-1.1729 0.1409-0.04869 0.128 0.26965-0.21677 0.79441-0.12317 0.18748-0.25227 0.37244-0.40915 0.53278-0.15687 0.16034-0.33809 0.29447-0.52091 0.42446 0.99915-0.7104 2-1.3515 2.916-2.0075 0.23153-0.16578 0.46731-0.33943 0.70669-0.51919 1.1433-0.85854 2.9155-2.2826 4.2766-3.3758l-0.07515 0.02279c4.9743-2.2865 10.357-3.5425 15.555-4.5946 7.2762-1.4727 13.511-2.7628 17.121-3.6898z"/>
  <path d="m1178.5 254.14c-178.74-33.621-357.49-67.242-536.23-100.86"/>
  <path d="m400.58 70.305c7.0287-6.7417 14.057-13.483 21.086-20.225"/>
  <path d="m136.13 27.988c2.4777 1.2602 7.795 6.3152 14.241 8.1213 4.4013 1.2332 11.735 1.6124 19.675 2.9008l-0.0346-0.01111c3.6875 0.29205 7.2514 0.62889 10.849 1.3426 4.953 0.98244 8.6238 2.4673 10.698 3.7925-1.4375-2.0639-3.494-5.4053-7.6977-9.3768-2.9601-2.7966-6.3989-5.3242-10.075-7.4089-3e-3 -0.0015-5e-3 -0.0029-8e-3 -0.0039-3e-3 -9.86e-4 -6e-3 -0.0016-9e-3 -0.0021-3e-3 -5.04e-4 -6e-3 -9.86e-4 -9e-3 -0.0018-3e-3 -8.24e-4 -6e-3 -2e-3 -9e-3 -0.0033-8.4266-3.9174-16.708-5.7546-21.794-5.5671-7.4764 0.27559-13.334 5.0922-15.828 6.218z"/>
  <path d="m1112.9 262.42c-342.44 101.28-684.89 202.55-1027.3 303.83"/>
  <path d="m1335.2 554.77c-416.54 3.826-833.09 7.6521-1249.6 11.478"/>
  <path d="m79.561 224.35c-0.35845-0.5359-1.7907-2.9441-2.4203-4.5023-0.28333-0.70116-0.48847-1.3912-0.55715-2.0486-0.06412-0.61371-0.0021-1.1244 0.15125-1.5738 0.0069-0.0201 0.01345-0.0405 0.01552-0.0616 0.0021-0.0211-4.69e-4 -0.0428-0.0083-0.0626-0.0078-0.0198-0.02068-0.0373-0.03638-0.0516s-0.03407-0.0254-0.05308-0.0349c-0.03801-0.019-0.07888-0.0329-0.11331-0.0578-0.01721-0.0124-0.03264-0.0273-0.04564-0.0441s-0.02346-0.0354-0.03362-0.054c-1.7857-3.2788-3.7702-6.9052-6.1345-10.311-0.90285-1.3005-1.8666-2.578-2.9055-3.8078-1.5621-1.8492-3.5282-3.8678-5.8918-5.7944-0.14079-0.11476-0.27947-0.23223-0.42403-0.3422-0.14456-0.10997-0.29885-0.20647-0.45654-0.29662-1.0769-0.61565-2.1495-0.98659-3.1127-1.2028-0.88916-0.19957-1.6913-0.2687-2.3215-0.2778-0.60636-9e-3 -1.1037 0.0368-1.4503 0.10816-0.35541 0.0732-0.56509 0.17295-0.74185 0.30759-0.01987 0.0151-0.04024 0.0301-0.0633 0.0397-0.02306 0.01-0.04857 0.0137-0.07334 0.0104-0.02477-3e-3 -0.04835-0.0137-0.06836-0.0286-0.02001-0.015-0.0365-0.0342-0.05089-0.0546-0.02878-0.0409-0.05108-0.0866-0.08572-0.12264-0.01732-0.018-0.03737-0.0334-0.05929-0.0454s-0.04556-0.0205-0.0692-0.0285c-4.6449-1.5836-9.3799-2.4204-13.668-3.1378-4.6465-0.7773-8.6494-1.401-12.632-2.5479-0.0015-4.4e-4 -3e-3 -9.2e-4 -0.0045-2e-3 -0.0014-6.5e-4 -0.0028-1e-3 -0.0042-2e-3 -0.0014-7.9e-4 -0.0028-2e-3 -0.0042-2e-3 -0.0015-6e-4 -3e-3 -1e-3 -0.0046-1e-3 -8.0679-1.893-13.568-6.8083-16.186-10.039 1.7206 3.4306 5.608 10.551 13.959 15.415l-0.0175-7e-3c4.0384 2.2329 8.2218 3.8724 12.579 5.5768 4.1898 1.6389 7.9809 3.136 11.508 5.0998l-0.4701-0.22965c0.8558 0.69334 1.7265 1.219 2.4647 1.6274 0.76443 0.42282 1.4148 0.74093 1.9064 1.0084 0.52521 0.28571 0.84195 0.49351 1.0142 0.66273 0.17653 0.17342 0.14463 0.25874 0.03045 0.23788-0.0914-0.0167-0.18308-0.037-0.26685-0.0772-0.08377-0.0402-0.15816-0.098-0.22445-0.16307-0.0663-0.0651-0.12597-0.13655-0.18911-0.20472-0.06314-0.0682-0.1308-0.13197-0.20015-0.19381 1.653 1.4739 3.2111 3.0294 4.6311 4.4422 0.90183 0.89731 1.9684 1.9574 2.9395 2.9156 2.6467 2.6115 5.6281 5.5054 8.6628 8.1006l-0.27478-0.36665c1.0374 0.85831 2.1159 1.4062 3.1231 1.7518 1.0813 0.37112 2.1111 0.52037 3.0045 0.57707 2.4668 0.15654 4.2761-0.18629 5.3336-0.10288z"/>
  <path d="m76.618 230.79c0.98603-0.97008 2.8901-2.3247 5.1837-3.6269 2.4464-1.389 4.8056-2.4373 7.4407-3.4637l-0.0116 0.0102c1.8425-0.96644 3.5932-2.0731 5.1684-3.2654 2.5252-1.9115 4.7402-4.1005 7.5867-6.6108l-0.016 0.012c0.74185-0.78345 1.6998-1.5831 3.2015-2.5257 1.4819-0.93018 2.9629-1.686 4.9256-2.7474l-0.1203 0.0363c5.6116-2.0416 11.448-3.3821 17.634-5.0796 6.4836-1.7793 12.551-3.7601 18.225-6.951 5.7957-4.1158 9.0311-8.5744 10.831-11.067-2.4614 1.9948-6.9848 4.6729-13.137 6.1895-5.4083 2.0562-11.108 3.0336-17.522 3.8497-5.8442 0.74361-12.597 1.3771-18.985 2.8197-0.0205 5e-3 -0.0402 0.0121-0.0596 0.0205-0.01 4e-3 -0.0195 8e-3 -0.0296 0.0108-0.0102 3e-3 -0.0207 4e-3 -0.0311 5e-3 -1.9065 0.18854-4.1026 0.43523-6.3253 0.96107-2.4028 0.56846-4.8846 1.4728-7.2138 2.997-0.0028 2e-3 -0.0055 4e-3 -8e-3 6e-3 -0.0026 2e-3 -0.0052 4e-3 -8e-3 6e-3 -3.7871 2.5202-6.854 5.3637-8.7295 7.4654-1.3181 1.4772-2.4605 3.0427-3.4933 4.5859-7.24e-4 1e-3 -0.0015 2e-3 -0.0025 3e-3 -9.83e-4 8.5e-4 -0.0021 1e-3 -0.0033 2e-3 -0.0011 6.3e-4 -0.0023 1e-3 -0.0033 2e-3 -9.99e-4 8.3e-4 -0.0018 2e-3 -0.0026 3e-3 -2.2985 3.2344-3.3946 6.7626-3.8996 9.6883-0.50497 2.9257-0.46436 5.2847-0.5933 6.6641z"/>
  <path d="m1549.8 273.53c-466.68-48.163-933.37-96.326-1400-144.49"/>
  <path d="m21.7 78.296c4.393-9.2816 7.4088-18.996 7.4088-29.368"/>
  <path d="m141.71 26.999c12.213-0.62802 34.776 3.0642 43.966-6.1254"/>
  <path d="m1253.4 186.71-529.42-19.902"/>
  <path d="m1216 217.29-525.27 60.297"/>
  <path d="m148.64 103.07c0.15228 9e-3 0.33307-5e-3 0.53966-0.0738 0.16898-0.0567 0.35104-0.1491 0.54456-0.29049 0.16984-0.12408 0.34424-0.28274 0.52304-0.48097 0.16299-0.1807 0.32686-0.39119 0.49239-0.63331 0.30287-0.443 0.59846-0.97277 0.89865-1.5885 0.27589-0.56586 0.54001-1.1715 0.8107-1.8146 0.25354-0.60234 0.50515-1.2198 0.75562-1.8022 0.2437-0.56672 0.48331-1.0925 0.7211-1.535 0.23782-0.44261 0.456-0.7668 0.64012-0.95041 0.088-0.0878 0.15564-0.12892 0.18287-0.12674 0.0248 2e-3 3e-3 0.04877-0.087 0.09072 0.6107-0.12524 1.1746-0.24635 1.7089-0.39096 0.1914-0.0518 0.38765-0.10897 0.5861-0.17197 0.66758-0.21192 1.3952-0.50021 2.1092-0.91671 0.65897-0.38443 1.2976-0.87195 1.91-1.5192 0.58859-0.62208 1.1296-1.3664 1.6512-2.2734 0.40394-0.73297 0.69785-1.4539 0.94881-2.117 0.28368-0.74957 0.47798-1.3235 0.75318-1.9781 0.29813-0.70912 0.6183-1.3231 1.0252-1.9043 0.56305-0.8041 1.204-1.4104 1.788-1.8545-0.63424 0.35889-1.3938 0.83455-2.1607 1.522-0.55949 0.50155-1.0548 1.0526-1.5545 1.7112-0.44267 0.58348-0.81751 1.1537-1.2449 1.7812-0.3951 0.5801-0.79088 1.1415-1.2547 1.6907-0.57384 0.71353-1.1084 1.2228-1.6163 1.606-0.52009 0.39238-1.0245 0.66129-1.5199 0.87601-0.54585 0.23661-1.1266 0.42588-1.714 0.6134-0.17577 0.05612-0.34707 0.11043-0.52359 0.16729-0.47416 0.15272-1.038 0.34044-1.6286 0.55394-0.35328 0.11573-0.6365 0.31131-0.85708 0.52076-0.21752 0.20654-0.39077 0.44198-0.53136 0.67399-0.27647 0.45624-0.48834 1.0039-0.66138 1.5463-0.17824 0.55878-0.33569 1.1791-0.47884 1.7941-0.14581 0.62648-0.29089 1.3104-0.42404 1.9258-0.14607 0.67513-0.2833 1.2944-0.42997 1.8788-0.15895 0.63331-0.31686 1.1758-0.48431 1.6367-0.0914 0.2517-0.18378 0.47353-0.27785 0.66824-0.10308 0.21333-0.20727 0.39207-0.31327 0.54095-0.12058 0.16936-0.24304 0.29942-0.36795 0.39761-0.15382 0.12093-0.30889 0.19138-0.45923 0.22629z"/>
  <path d="m116.98 596.75 5.4082-459.7"/>
  <path d="m113.62 120.89 8.7707 16.157"/>
  <path d="m260.56 93.831 42.235-18.323"/>
  <path d="m1349.9 392.69c-3.9872 99.977-7.9745 199.95-11.962 299.93"/>
  <path d="m671.98 535.29c-46.714-100.46-93.428-200.92-140.14-301.38"/>
  <path d="m1204.2 212.95c-364.73-9.3414-729.46-18.683-1094.2-28.024"/>
  <path d="m24.847 45.778c1.2436-0.12423 2.8424-0.0947 5.1853 0.148 1.5599 0.16158 3.314 0.40803 5.196 0.56246 0.55548 0.03628 1.2012 0.16053 1.9132 0.37305 0.70085 0.20919 1.4419 0.49682 2.1847 0.84525 0.73877 0.34656 1.4666 0.74736 2.1427 1.1779 0.41333 0.26323 0.80369 0.53527 1.1628 0.81001 0.22391 0.17129 0.43941 0.34648 0.64277 0.52394 0.49839 0.43491 0.89895 0.86203 1.1664 1.2486 0.1245 0.17991 0.20795 0.33362 0.25966 0.45856 0.05019 0.12126 0.06211 0.195 0.06502 0.22747 0.0024 0.0272-5.35e-4 0.01679 0.0085 0.0014 0.0059-0.01008 0.01356-0.0024-0.03748 0.04856-0.05064 0.05053-0.1568 0.13407-0.35625 0.22989-0.19516 0.09376-0.46521 0.1923-0.83021 0.28159 0.0526-0.0041 0.07712 0.0069 0.07049 0.01701-0.0068 0.01043-0.04191 0.01929-0.10117 0.02228-0.13137 0.0066-0.29303-0.01292-0.56034-0.03647-0.11924-0.01051-0.26346-0.02162-0.41414-0.02399-0.14915-0.0023-0.32514 0.0033-0.51107 0.0329-0.18654 0.02967-0.39424 0.08511-0.60137 0.18844-0.21002 0.10477-0.39998 0.24923-0.55845 0.43481-0.86233 0.91075-1.3831 1.7865-1.7316 2.5956-0.33944 0.78798-0.52268 1.5411-0.6774 2.0884-0.08263 0.29229-0.16026 0.54266-0.25293 0.77043-0.09257 0.22755-0.19958 0.43068-0.3378 0.61639-0.14113 0.18961-0.32286 0.37191-0.57117 0.54486-0.25594 0.17827-0.58178 0.3459-1.0001 0.49747-0.05112 0.01707-0.09524 0.03997-0.13228 0.06464-0.03684 0.02454-0.06659 0.05076-0.09015 0.07519-0.04611 0.0478-0.07454 0.09493-0.09165 0.12889-0.03342 0.06633-0.0452 0.12557-0.05044 0.16121-0.0058 0.0397-0.0072 0.07759-0.0072 0.1096-1.9e-5 0.03299 0.0015 0.06709 0.0035 0.09944 0.0039 0.06355 0.01115 0.14011 0.0185 0.21239 0.0076 0.07495 0.01711 0.16176 0.02671 0.24743 0.01963 0.17511 0.04486 0.39102 0.06937 0.59631 0.02671 0.22366 0.05519 0.45692 0.08378 0.6851 0.06586 0.52574 0.12759 0.9876 0.18225 1.3613 0.03196 0.2185 0.05958 0.39372 0.08321 0.53235 0.01339 0.07853 0.02522 0.14364 0.0356 0.19743 0.01176 0.06093 0.02146 0.10618 0.02935 0.13981 0.0079-0.03358 0.0164-0.07947 0.02544-0.14102 8e-3 -0.05446 0.01629-0.12026 0.02492-0.1997 0.01535-0.14135 0.03076-0.31594 0.04777-0.53731 0.03803-0.49468 0.06083-0.87066 0.09886-1.3653 0.01773-0.22624 0.03783-0.46001 0.06085-0.67807 0.02182-0.20668 0.0468-0.4045 0.07563-0.57084 0.01396-0.08051 0.02887-0.15394 0.04469-0.21672 0.01545-0.06131 0.03199-0.11311 0.04847-0.14767 0.0081-0.0169 0.01618-0.02974 0.02345-0.03581 0.0069-0.0058 0.01392-0.0057 0.01631 0.0073 0.0018 0.0099 0.0019 0.04154-0.02311 0.09408-0.01234 0.02595-0.03552 0.06632-0.07651 0.10925-0.02096 0.02195-0.04806 0.0461-0.0822 0.06897-0.03435 0.02301-0.07573 0.04464-0.12407 0.06087 0.49674-0.12592 0.93112-0.28317 1.3121-0.47919 0.37418-0.19254 0.69174-0.41984 0.96608-0.68566 0.26893-0.26058 0.48356-0.54576 0.66648-0.84692 0.17848-0.29384 0.32547-0.60089 0.46041-0.9046 0.27707-0.62361 0.48722-1.1833 0.84449-1.8126 0.33907-0.59724 0.80007-1.2304 1.5307-1.8995-0.02403 0.0542-0.07065 0.10513-0.12126 0.147-0.05 0.04136-0.08538 0.0608-0.09599 0.0806-0.0098 0.01836 0.0065 0.03426 0.04592 0.05616 0.03737 0.02075 0.10294 0.05012 0.17788 0.0815 0.14538 0.06087 0.39535 0.15912 0.66246 0.22573 0.1447 0.03608 0.31256 0.06791 0.49645 0.08125 0.19058 0.01383 0.40668 0.0084 0.63681-0.03726 0.51525-0.11612 0.98115-0.26522 1.3943-0.45246 0.42187-0.19119 0.8049-0.42951 1.1288-0.72698 0.33584-0.3084 0.60116-0.67452 0.77219-1.0939 0.17557-0.43048 0.23263-0.87006 0.2067-1.2893-0.0263-0.42524-0.13696-0.82135-0.28418-1.1742-0.15224-0.36488-0.35271-0.7056-0.57298-1.0168-0.46316-0.65436-1.0681-1.2546-1.6932-1.7742-0.26268-0.21836-0.5349-0.42746-0.81133-0.62606-0.44318-0.31841-0.91621-0.62351-1.4084-0.91016-0.80397-0.46819-1.6641-0.89004-2.5364-1.2414-0.87591-0.35286-1.7692-0.63679-2.6363-0.82509-0.87493-0.19001-1.7373-0.28575-2.5375-0.25001-1.9342 0.16317-3.5244 0.28472-5.2183 0.51614-2.4367 0.3329-3.9333 0.74956-5.163 1.114z"/>
  <path d="m-275.39 185.54c128.47-0.20447 256.94-0.40895 385.41-0.61342"/>
  <path d="m36.091 61.93c0.36435-0.78527 0.91764-1.9339 1.1582-3.7225 0.17492-1.3008 0.13729-2.6472-0.03476-3.8333-0.07751-0.5343-0.18186-1.0275-0.30579-1.4416-0.19919-0.6656-0.51242-1.3406-0.83761-1.9874-0.76457-1.5208-1.3026-2.4542-1.5188-3.3157-0.2098 0.83589-0.5981 1.9446-0.6304 3.787-0.01358 0.77471 0.0463 1.5542 0.19197 2.233 0.09181 0.42782 0.23344 0.88878 0.40185 1.3744 0.36379 1.049 0.83652 2.1809 1.1591 3.2838 0.44748 1.53 0.52931 2.7533 0.41639 3.6224z"/>
  <path d="m-206.94 250.41c249.12-22.462 498.24-44.924 747.35-67.386"/>
  <path d="m567.66 167.14c22.142 1.1587 44.284 2.3174 66.426 3.4761"/>
  <path d="m82.711 190.94c0.02471-0.0263 0.05285-0.0476 0.08312-0.0613 0.02741-0.0124 0.05522-0.0179 0.08198-0.0163 0.02465 2e-3 0.04695 9e-3 0.06738 0.0209 0.01893 0.011 0.03601 0.0257 0.05275 0.0427 0.0275 0.028 0.06477 0.0744 0.10322 0.12226 0.03316 0.0413 0.08777 0.10953 0.1401 0.1756 0.10421 0.13157 0.23453 0.29854 0.41405 0.53522 0.15899 0.2096 0.3448 0.45835 0.56959 0.76326 0.40548 0.55 0.87957 1.2035 1.4872 2.045 3.3995 4.7071-1.6373-2.268 1.7622 2.4391 0.2274 0.31367 0.46112 0.63529 0.69654 0.95798 0.48505 0.66485 2.1627 2.9508 2.7122 3.7002 0.42752 0.58295 0.86199 1.1753 1.1409 1.5511 0.13461 0.18136 0.2504 0.33589 0.33433 0.44447 0.02092 0.0271 0.04123 0.0531 0.0605 0.0773 0.01841 0.0231 0.03932 0.049 0.06119 0.075 0.01089 0.0129 0.02499 0.0294 0.04118 0.0476 0.01389 0.0156 0.04085 0.0455 0.07559 0.0802 0.01735 0.0173 0.04649 0.0457 0.08416 0.0784 0.0193 0.0168 0.04582 0.0391 0.07831 0.0639 0.03097 0.0237 0.07891 0.0588 0.14052 0.0964 0.05559 0.034 0.16147 0.0944 0.30513 0.14487 0.07453 0.0262 0.17789 0.0564 0.30392 0.0745 0.12548 0.018 0.29626 0.0273 0.49402-6e-3 0.20413-0.0344 0.42892-0.11331 0.64243-0.26036 0.21409-0.14747 0.37073-0.33167 0.47811-0.51734 0.10381-0.17954 0.15555-0.3491 0.18226-0.47878 0.02673-0.12974 0.03297-0.24157 0.03296-0.32364-0.0038-4.4822-0.23478-7.8015-0.53123-10.212-0.13543-1.1014-0.27702-1.9525-0.39892-2.5943-0.05852-0.30808-0.11171-0.56359-0.15344-0.75784-0.01993-0.0927-0.03917-0.18035-0.05254-0.2401-0.01346-0.0601-0.0247-0.10911-0.02988-0.12306-0.0072-0.0195-0.0048 1e-3 -0.01075 0.0846-0.0026 0.0367-0.0096 0.12329-0.0347 0.2302-0.01319 0.0562-0.03446 0.13154-0.0698 0.21731-0.0352 0.0854-0.08978 0.19439-0.17472 0.3087-0.08654 0.11646-0.20535 0.23923-0.36357 0.3432-0.1603 0.10534-0.33618 0.1749-0.51541 0.20925-0.17507 0.0335-0.33209 0.0296-0.4586 0.0121-0.12467-0.0173-0.22659-0.0487-0.30113-0.0773-0.1424-0.0547-0.23802-0.11975-0.28091-0.15121-0.04885-0.0358-0.07761-0.0638-0.08992-0.077-0.03091-0.0332-0.0093-0.0217 0.01144-5e-3 0.02622 0.0206 0.06651 0.0574 0.11703 0.10556 0.10007 0.0954 0.23807 0.23349 0.40805 0.39736 0.33765 0.32551 0.79808 0.74966 1.4095 1.2194 0.60345 0.46358 1.3507 0.96897 2.2697 1.4682 0.20915 0.10715 0.45342 0.20467 0.72077 0.24974 0.1366 0.023 0.28732 0.0337 0.44674 0.0207 0.16093-0.0131 0.32656-0.0501 0.48873-0.11852 0.16262-0.0686 0.30647-0.16252 0.42926-0.2743 0.12082-0.10998 0.21458-0.23148 0.28556-0.34998 0.13807-0.23052 0.20176-0.46728 0.23374-0.66119 0.0327-0.19825 0.03969-0.39835 0.03504-0.58485-0.0047-0.18901-0.02201-0.38482-0.04631-0.57944-0.04841-0.38787-0.1304-0.8159-0.2239-1.2442-0.18407-0.84328-0.45453-1.8663-0.66039-2.6973-0.11045-0.44591-0.20871-0.86003-0.28743-1.2369-0.08106-0.38811-0.13589-0.7108-0.16409-0.97455-0.12069-3.1679-0.38725-6.0248-0.38773-8.5189-2.97e-4 -1.5301 0.08436-2.8688 0.26215-4.1144 0.23832-1.6696 0.62238-3 1.0276-4.0567-0.45588 1.0356-0.93093 2.3405-1.2981 4.0076-0.27414 1.2449-0.46716 2.5904-0.59084 4.1395-0.20133 2.5218-0.1661 5.4262-0.28678 8.5429-0.02731 0.34565-0.01882 0.74197 0.01075 1.1676 0.02905 0.41818 0.07881 0.86931 0.13719 1.3355 0.1134 0.9057 0.26158 1.8823 0.33871 2.7057 0.03834 0.40931 0.05847 0.77348 0.05086 1.07-0.0038 0.14684-0.01425 0.27058-0.03069 0.3679-0.01633 0.0967-0.038 0.16094-0.0555 0.17963-0.0082 9e-3 -0.03485-7e-3 0.01832-0.11186 0.02365-0.0467 0.06341-0.10602 0.12516-0.16609 0.063-0.0613 0.14087-0.11548 0.23061-0.15629 0.08927-0.0406 0.1753-0.0612 0.24949-0.0704 0.07212-9e-3 0.12984-7e-3 0.16457-5e-3 0.06849 3e-3 0.07067 4e-3 0.01827-0.04-0.77091-0.46595-1.378-0.9266-1.8508-1.3376-0.4782-0.41566-0.82686-0.78723-1.0782-1.0781-0.13035-0.15084-0.23181-0.27656-0.32783-0.39514-0.04544-0.0561-0.09561-0.118-0.14219-0.17266-0.04452-0.0522-0.10734-0.12367-0.18224-0.19386-0.03855-0.0361-0.09372-0.0847-0.16382-0.13502-0.06477-0.0465-0.18087-0.12268-0.34038-0.18369-0.08329-0.0318-0.1934-0.0654-0.32566-0.0837-0.13413-0.0186-0.29821-0.0223-0.47978 0.0125-0.18574 0.0356-0.36758 0.10763-0.53329 0.21656-0.16366 0.1076-0.28736 0.23515-0.37828 0.35758-0.08933 0.1203-0.14775 0.23643-0.18629 0.33023-0.0387 0.0942-0.0628 0.17912-0.07834 0.24612-0.03002 0.12937-0.03929 0.2411-0.04299 0.31022-0.0073 0.13632 7.1e-5 0.26272 0.0055 0.33783 0.0063 0.0872 0.01564 0.17604 0.02582 0.26126 0.01048 0.0878 0.02313 0.18232 0.03737 0.28361 0.02901 0.20638 0.06578 0.44936 0.10818 0.74092 0.0878 0.60362 0.19722 1.398 0.30541 2.4403 0.23773 2.2901 0.4368 5.4717 0.43297 9.8596-1.5e-5 -0.0818 0.0062-0.19344 0.0329-0.323 0.02668-0.12948 0.07836-0.29889 0.18203-0.47818 0.10736-0.18565 0.26391-0.36974 0.47776-0.51705 0.21352-0.14705 0.43818-0.2259 0.64215-0.26029 0.1976-0.0333 0.36821-0.024 0.4935-6e-3 0.12583 0.0181 0.22898 0.0482 0.30328 0.0743 0.1432 0.0503 0.24854 0.11047 0.30351 0.14406 0.061 0.0373 0.10824 0.0718 0.13845 0.0949 0.03172 0.0243 0.05739 0.0459 0.07578 0.0619 0.03582 0.0311 0.06283 0.0575 0.07773 0.0724 0.02975 0.0297 0.05078 0.0531 0.05732 0.0605 0.0086 0.01 0.01482 0.0169 0.01581 0.018 0.0028 3e-3 -8.97e-4 -1e-3 -0.01047-0.0132-0.0095-0.0119-0.02189-0.0275-0.03827-0.0484-0.06891-0.0877-0.17504-0.22518-0.31409-0.40536-0.30884-0.40018-0.70643-0.91535-1.1864-1.5251-0.96984-1.232-1.9921-2.4881-2.9624-3.5992-0.26902-0.30804-0.53866-0.61019-0.80717-0.90424-0.75748-0.82956-1.4901-1.5775-2.1756-2.2195-0.77764-0.72828-1.4705-1.2978-2.0741-1.7142-0.34098-0.23527-0.64951-0.419-0.92723-0.55613-0.3113-0.15371-0.58315-0.24848-0.81742-0.29182-0.13083-0.0242-0.25061-0.0325-0.3583-0.0254-0.11891 8e-3 -0.2226 0.0342-0.30743 0.0778-0.04615 0.0237-0.08523 0.0516-0.11745 0.0827-0.03456 0.0333-0.05989 0.0687-0.07821 0.10414-0.01978 0.0383-0.03124 0.0762-0.0381 0.11169-0.0075 0.0389-0.01 0.0775-0.01057 0.11278z"/>
 </g>
</svg>
